<?xml version="1.0" encoding="UTF-8" standalone="no"?>
<svg
   xmlns:dc="http://purl.org/dc/elements/1.1/"
   xmlns:cc="http://creativecommons.org/ns#"
   xmlns:rdf="http://www.w3.org/1999/02/22-rdf-syntax-ns#"
   xmlns:svg="http://www.w3.org/2000/svg"
   xmlns="http://www.w3.org/2000/svg"
   version="1.1"
   id="svg2"
   viewBox="0 0 920 90"
   height="90"
   width="920">
  <defs
     id="defs4" />
  <metadata
     id="metadata7">
    <rdf:RDF>
      <cc:Work
         rdf:about="">
        <dc:format>image/svg+xml</dc:format>
        <dc:type
           rdf:resource="http://purl.org/dc/dcmitype/StillImage" />
        <dc:title></dc:title>
      </cc:Work>
    </rdf:RDF>
  </metadata>
  <g
     transform="translate(0,-962.36223)"
     id="layer1">
    <path
       id="path4381"
       d="m -15.000002,965.37115 0,45.99555 0,45.9955 465.817862,0 465.81786,0 0,-0.3271 18.36428,0 0,-45.9955 0,-45.99545 -2.25788,-0.6502 c -5.14005,-1.4776 -26.86828,-1.8613 -36.44485,-0.6444 -18.61439,2.3654 -30.07367,7.2444 -52.15211,22.2086 -35.11515,23.80005 -50.84732,32.27845 -75.7854,40.84285 -27.03439,9.2842 -47.66425,12.389 -82.3301,12.389 -35.00321,0 -55.50278,-3.1431 -83.32598,-12.7787 -21.82385,-7.5581 -39.28504,-16.8914 -69.95486,-37.39215 -8.93498,-5.9725 -19.15784,-12.5041 -22.71762,-14.5139 -18.12727,-10.2341 -43.9844,-14.062 -69.13506,-10.2347 -17.92623,2.728 -27.44265,7.0526 -51.52405,23.4091 -36.84198,25.02355 -59.86329,36.37465 -89.10763,43.93705 -16.31348,4.2187 -33.90902,6.7635 -51.72363,7.6751 -4.59843,0.1473 -9.41187,0.2252 -14.5705,0.2252 -5.79919,0 -11.17713,-0.096 -16.2864,-0.284 -20.85953,-1.1531 -41.17595,-4.5623 -59.21334,-10.2112 -26.06436,-8.1627 -45.90954,-18.4538 -80.815725,-41.90825 -27.81701,-19.1168 -60.797328,-30.5257 -92.654867,-21.7424 z"
       style="fill:#f2d24c;fill-opacity:1;stroke:none;stroke-width:1.00644469;stroke-opacity:1" />
  </g>
</svg>
