<?xml version="1.0" encoding="UTF-8" standalone="no"?>
<svg
   xmlns:dc="http://purl.org/dc/elements/1.1/"
   xmlns:cc="http://creativecommons.org/ns#"
   xmlns:rdf="http://www.w3.org/1999/02/22-rdf-syntax-ns#"
   xmlns:svg="http://www.w3.org/2000/svg"
   xmlns="http://www.w3.org/2000/svg"
   version="1.1"
   id="svg2"
   viewBox="0 0 930 280"
   height="280"
   width="930">
  <defs
     id="defs4" />
  <metadata
     id="metadata7">
    <rdf:RDF>
      <cc:Work
         rdf:about="">
        <dc:format>image/svg+xml</dc:format>
        <dc:type
           rdf:resource="http://purl.org/dc/dcmitype/StillImage" />
        <dc:title></dc:title>
      </cc:Work>
    </rdf:RDF>
  </metadata>
  <g
     transform="translate(0,-772.36223)"
     id="layer1">
    <g
       style="fill:#000000"
       id="g4438">
      <path
         id="path4442"
         d="m -14.736896,933.89843 0.263106,-123.4636 c 23.124796,-18.83818 77.877585,-36.80251 113.734372,-38.0726 33.838688,0 47.390198,3.11277 56.922148,5.59189 11.78805,3.06594 23.77914,7.69654 32.4912,12.54713 12.13733,6.75767 23.14713,16.01934 48.28942,40.62205 44.4783,43.5238 67.68719,60.96787 105.84128,79.55163 27.23016,13.2631 54.9414,22.4046 88.02512,29.0382 31.66538,6.3492 40.15673,7.1562 75.59804,7.1849 28.52047,0.023 33.77911,-0.2398 47.11933,-2.3554 34.82983,-5.5239 57.4717,-12.5548 106.79656,-33.1632 39.46233,-16.48774 51.84978,-19.46241 77.0206,-18.49594 24.70993,0.94885 50.61826,7.05981 69.12586,16.30462 17.10834,8.54582 24.03612,14.25752 60.86737,50.18322 28.32195,27.6256 43.62075,40.2221 66.86852,55.05757 l 10.77397,6.8754 0,18.0289 0,18.029 -480,0 -480.000002,0 z"
         style="fill:#ffffff" />
    </g>
  </g>
</svg>
