<?xml version="1.0" encoding="UTF-8" standalone="no"?>
<svg
   xmlns:dc="http://purl.org/dc/elements/1.1/"
   xmlns:cc="http://creativecommons.org/ns#"
   xmlns:rdf="http://www.w3.org/1999/02/22-rdf-syntax-ns#"
   xmlns:svg="http://www.w3.org/2000/svg"
   xmlns="http://www.w3.org/2000/svg"
   version="1.1"
   id="svg2"
   viewBox="0 0 1340 144"
   height="144"
   width="1340">
  <defs
     id="defs4" />
  <metadata
     id="metadata7">
    <rdf:RDF>
      <cc:Work
         rdf:about="">
        <dc:format>image/svg+xml</dc:format>
        <dc:type
           rdf:resource="http://purl.org/dc/dcmitype/StillImage" />
        <dc:title></dc:title>
      </cc:Work>
    </rdf:RDF>
  </metadata>
  <g
     transform="translate(0,-908.36223)"
     id="layer1">
    <g
       transform="matrix(0.99961384,0,0,0.9941188,177.31002,661.99171)"
       id="g4147">
      <path
         id="path4151"
         d="m -152.0816,247.83235 c -0.74795,0.006 -1.38867,0.0196 -1.90429,0.041 l -6.46094,0.26953 0,0.0606 c -13.71318,-0.0896 -25.13217,0.0891 -26.93555,0.66992 l 0,144.81247 26.93555,0 638.69336,0 29.26758,0 638.69339,0 26.9355,0 0,-144.81247 c -1.8034,-0.58077 -13.2224,-0.7595 -26.9355,-0.66992 l 0,-0.0606 -6.461,-0.26953 c -0.5157,-0.0214 -1.1564,-0.035 -1.9043,-0.041 -5.2357,-0.0449 -15.7114,0.26548 -25.0957,0.76367 -3.9357,0.20894 -7.8461,0.49119 -11.7383,0.83008 -3.3228,0.19649 -6.0886,0.40956 -7.9589,0.63867 -5.0747,0.62163 -10.0731,1.34472 -15.0157,2.15625 -42.1089,6.61773 -81.82131,21.24241 -120.28707,44.24414 -1.60775,0.9614 -3.86702,2.36158 -6.53711,4.04102 -3.26554,2.03303 -6.79821,4.29423 -10.53711,6.72266 -6.06141,3.90277 -12.68183,8.21349 -18.79492,12.26562 -45.62707,30.24428 -60.86438,35.88258 -99.94141,36.91598 -22.65417,0.5927 -36.36572,-0.9403 -52.37109,-5.8535 -2.05081,-0.6295 -4.0027,-1.2686 -5.91992,-1.9512 -7.85966,-3.0388 -16.00504,-7.1199 -25.22071,-12.49995 -8.27488,-5.0042 -18.65353,-11.80879 -33.13476,-21.54883 -55.10691,-37.06476 -101.40849,-56.46666 -156.89258,-63.50781 -6.6037,-0.905 -13.2352,-1.54719 -20.57422,-2.02149 -0.67852,-0.0483 -1.36131,-0.0936 -2.04297,-0.13867 -0.52718,-0.0312 -1.04993,-0.0642 -1.58594,-0.0937 -10.0588,-0.6268 -20.46871,-0.91141 -31.31445,-0.87695 -10.84389,-0.0344 -21.25137,0.25033 -31.30859,0.87695 -0.53863,0.0297 -1.06403,0.0624 -1.59375,0.0937 -0.67968,0.045 -1.36056,0.0905 -2.03711,0.13867 -7.33921,0.47427 -13.97048,1.11652 -20.57422,2.02149 -55.48492,7.04094 -101.78701,26.44262 -156.89453,63.50781 -14.3907,9.67914 -24.73276,16.46339 -32.98242,21.45899 -9.27897,5.42449 -17.46973,9.53419 -25.37305,12.58979 -1.91722,0.6826 -3.86912,1.3217 -5.91992,1.9512 -16.00542,4.9132 -29.7169,6.4462 -52.3711,5.8535 -39.07702,-1.0334 -54.31433,-6.6717 -99.941401,-36.91598 -6.083397,-4.03242 -12.665207,-8.32079 -18.703125,-12.20898 -3.771842,-2.45047 -7.338361,-4.73071 -10.628906,-6.7793 -2.670088,-1.67944 -4.929361,-3.07962 -6.537109,-4.04102 -38.464651,-23.00103 -78.175647,-37.62613 -120.283207,-44.24414 -4.94368,-0.81178 -9.943662,-1.53447 -15.019532,-2.15625 -1.87034,-0.22911 -4.63611,-0.44218 -7.95898,-0.63867 -3.89217,-0.33889 -7.80257,-0.62114 -11.73828,-0.83008 -9.38438,-0.49819 -19.86006,-0.80853 -25.09571,-0.76367 z"
         style="fill:#ffffff" />
    </g>
  </g>
</svg>
