<svg id="Capa_1" data-name="Capa 1" xmlns="http://www.w3.org/2000/svg" viewBox="0 0 50 50"><defs><style>.cls-1{fill:#e3c150;}</style></defs><title>calendar</title><path class="cls-1" d="M38.84,40.76H11.16a1,1,0,0,1-1-1v-28a1,1,0,0,1,1-1h3.16a1,1,0,0,1,0,2H12.16v26H37.84v-26H35.42a1,1,0,0,1,0-2h3.42a1,1,0,0,1,1,1v28A1,1,0,0,1,38.84,40.76Z"/><path class="cls-1" d="M17.63,14.28c-.56,0-1-.32-1-.71V10c0-.4.44-.72,1-.72s1,.32,1,.72v3.61C18.63,14,18.18,14.28,17.63,14.28Z"/><path class="cls-1" d="M22.54,14.28c-.55,0-1-.32-1-.71V10c0-.4.45-.72,1-.72s1,.32,1,.72v3.61C23.54,14,23.09,14.28,22.54,14.28Z"/><path class="cls-1" d="M27.46,14.28c-.55,0-1-.32-1-.71V10c0-.4.45-.72,1-.72s1,.32,1,.72v3.61C28.46,14,28,14.28,27.46,14.28Z"/><path class="cls-1" d="M32.38,14.28c-.56,0-1-.32-1-.71V10c0-.4.44-.72,1-.72s1,.32,1,.72v3.61C33.38,14,32.93,14.28,32.38,14.28Z"/><path class="cls-1" d="M36.41,19.14H13.33a.5.5,0,0,1-.5-.5.5.5,0,0,1,.5-.5H36.41a.5.5,0,0,1,.5.5A.5.5,0,0,1,36.41,19.14Z"/><circle class="cls-1" cx="25.18" cy="25.9" r="1.07"/><circle class="cls-1" cx="25.18" cy="30.39" r="1.07"/><circle class="cls-1" cx="25.18" cy="34.88" r="1.07"/><circle class="cls-1" cx="30" cy="25.9" r="1.07"/><circle class="cls-1" cx="30" cy="30.39" r="1.07"/><circle class="cls-1" cx="30" cy="34.88" r="1.07"/><circle class="cls-1" cx="16.21" cy="25.9" r="1.07"/><circle class="cls-1" cx="16.21" cy="30.39" r="1.07"/><circle class="cls-1" cx="16.21" cy="34.88" r="1.07"/><circle class="cls-1" cx="21.04" cy="25.9" r="1.07"/><circle class="cls-1" cx="21.04" cy="30.39" r="1.07"/><circle class="cls-1" cx="21.04" cy="34.88" r="1.07"/><circle class="cls-1" cx="34.82" cy="25.9" r="1.07"/><circle class="cls-1" cx="34.82" cy="30.39" r="1.07"/><circle class="cls-1" cx="34.82" cy="34.88" r="1.07"/></svg>