<svg id="Capa_1" data-name="Capa 1" xmlns="http://www.w3.org/2000/svg" viewBox="0 0 226.34 98.79"><defs><style>.cls-1{fill:#f2d24c;}.cls-2{fill:#fff;}.cls-3{fill:#1c2533;}.cls-4{fill:none;stroke:#f2d24c;stroke-linecap:round;stroke-linejoin:round;stroke-width:1.64px;}</style></defs><title>logo</title><path class="cls-1" d="M113.74,30l-14.58-.12a5.56,5.56,0,0,0-5.61,5.52h0A5.57,5.57,0,0,0,99.12,41h8.12l6.42.05c8.12.07,11.37,5.6,11.31,12s-3,12.74-11.52,12.67l-7-.06v0H98.83a5.57,5.57,0,0,0-5.57,5.53v0a5.57,5.57,0,0,0,5.52,5.62l14.58.11c16.86.14,24.67-10.68,24.78-23.64S130.33,30.08,113.74,30Z"/><path class="cls-1" d="M168.12,45.25v0a1.23,1.23,0,0,1-2,.7c-1.87-1.61-4.6-2.53-8.12-2.56-9.68-.08-16.19,7.39-16.26,17.2s5.3,16.63,15,17.31a14.39,14.39,0,0,0,9.38-2.6,1.23,1.23,0,0,1,1.94.82l0,.23a1.21,1.21,0,0,0,1.2,1l9.14.08a1.22,1.22,0,0,0,1.23-1.22l.25-30.73a1.22,1.22,0,0,0-1.21-1.24l-9.36-.07A1.22,1.22,0,0,0,168.12,45.25ZM160.59,68c-3.7,0-6.63-2.67-6.59-7.31s3-7.29,6.7-7.26c4.37,0,6.84,2.94,6.8,7.37C167.47,64.71,164.75,68.05,160.59,68Z"/><path class="cls-1" d="M212.74,44.59A4,4,0,0,0,209,47.1l-2.14,5.3-2,5.67a2.07,2.07,0,0,1-3.92-.09l-1.71-5.57-1.83-5.28a4,4,0,0,0-3.75-2.69l-4.28,0a4,4,0,0,0-3.74,5.51l10,24.68a4,4,0,0,1-.05,3.13l-3.69,8.33a4,4,0,0,0,3.62,5.62l4.18,0a4,4,0,0,0,3.69-2.38l17.39-39.07a4,4,0,0,0-3.62-5.63Z"/><path class="cls-2" d="M28.06,29.74H10.93a5.71,5.71,0,0,0-5.71,5.71h0a5.71,5.71,0,0,0,5.71,5.71H28.06c3.63,0,5.57,2.82,5.57,5.91s-1.88,5.78-5.57,5.78H18.52A13.23,13.23,0,0,0,5.22,66.07v5a5.71,5.71,0,0,0,5.71,5.71h1.88a5.7,5.7,0,0,0,5.71-5.71V69.77a5.71,5.71,0,0,1,5.71-5.71h3.83c12.56-.13,18.87-7.59,18.87-17.19C46.93,37.67,40.69,29.74,28.06,29.74Z"/><path class="cls-2" d="M77.94,43.58a4,4,0,0,0-3.73,2.54l-2.09,5.32L70.19,57a2.11,2.11,0,0,1-4-.06L64.46,51.5l-1.87-5.26a4,4,0,0,0-3.77-2.66H54.54a4,4,0,0,0-3.7,5.54l10.22,24.6a4,4,0,0,1,0,3.12l-3.63,8.37a4,4,0,0,0,3.68,5.59h4.18a4,4,0,0,0,3.67-2.41L86,49.18a4,4,0,0,0-3.67-5.6Z"/><circle class="cls-3" cx="9.71" cy="33.79" r="1.69"/><circle class="cls-3" cx="99.61" cy="69.29" r="1.69"/><path class="cls-2" d="M8.22,9.88v5.3a.91.91,0,0,0,.91.91h2.65a.92.92,0,0,1,.92.92h0a.92.92,0,0,1-.92.91H7.14A.92.92,0,0,1,6.22,17V9.88A.92.92,0,0,1,7.14,9H7.3A.92.92,0,0,1,8.22,9.88Z"/><path class="cls-2" d="M19.61,16.39H16.3a1,1,0,0,0-.89.59l-.15.35a1,1,0,0,1-.9.59h0a1,1,0,0,1-.89-1.37l3.15-7A1,1,0,0,1,17.51,9h.91a1,1,0,0,1,.89.58l3.15,7a1,1,0,0,1-.89,1.37h0a1,1,0,0,1-.89-.59L20.51,17A1,1,0,0,0,19.61,16.39Zm-1.81-5-1.28,3a.17.17,0,0,0,.16.24h2.55a.18.18,0,0,0,.17-.24l-1.27-3A.18.18,0,0,0,17.8,11.37Z"/><path class="cls-2" d="M28.64,16.39v.54a1,1,0,0,1-1,1h0a1,1,0,0,1-1-1V10a1,1,0,0,1,1-1h3.22a3.13,3.13,0,0,1,3.43,3.22c0,1.79-1.15,3.18-3.43,3.21H29.64A1,1,0,0,0,28.64,16.39Zm0-3.44a.61.61,0,0,0,.61.61h1.62a1.35,1.35,0,1,0,0-2.7H29.25a.61.61,0,0,0-.61.61Z"/><path class="cls-2" d="M37.6,9.88v5.3a.91.91,0,0,0,.91.91h2.65a.92.92,0,0,1,.92.92h0a.92.92,0,0,1-.92.91H36.51A.91.91,0,0,1,35.6,17V9.88A.92.92,0,0,1,36.51,9h.17A.92.92,0,0,1,37.6,9.88Z"/><path class="cls-2" d="M49,16.39H45.68a1,1,0,0,0-.89.59l-.15.35a1,1,0,0,1-.9.59h0a1,1,0,0,1-.89-1.37l3.15-7A1,1,0,0,1,46.88,9h.92a1,1,0,0,1,.89.58l3.14,7a1,1,0,0,1-.89,1.37h0a1,1,0,0,1-.9-.59L49.89,17A1,1,0,0,0,49,16.39Zm-1.81-5-1.28,3a.18.18,0,0,0,.16.25h2.55a.18.18,0,0,0,.16-.25l-1.27-3A.17.17,0,0,0,47.18,11.37Z"/><path class="cls-2" d="M53.66,10.74h-.94a.89.89,0,0,1-.89-.89h0A.89.89,0,0,1,52.72,9h5.65a.89.89,0,0,1,.89.89h0a.89.89,0,0,1-.89.89h-.94a.89.89,0,0,0-.89.89V17a.89.89,0,0,1-.89.89h-.21a.89.89,0,0,1-.89-.89v-5.4A.89.89,0,0,0,53.66,10.74Z"/><path class="cls-2" d="M65.39,16.39h-3.3a1,1,0,0,0-.9.59l-.15.35a1,1,0,0,1-.9.59h0a1,1,0,0,1-.89-1.37l3.15-7A1,1,0,0,1,63.29,9h.91a1,1,0,0,1,.89.58l3.15,7a1,1,0,0,1-.89,1.37h0a1,1,0,0,1-.9-.59L66.29,17A1,1,0,0,0,65.39,16.39Zm-1.8-5-1.29,3a.17.17,0,0,0,.16.24H65a.17.17,0,0,0,.15-.24l-1.28-3A.17.17,0,0,0,63.59,11.36Z"/><line class="cls-4" x1="74.63" y1="17.92" x2="221.11" y2="17.92"/></svg>