<?xml version="1.0" encoding="UTF-8" standalone="no"?>
<svg
   xmlns:dc="http://purl.org/dc/elements/1.1/"
   xmlns:cc="http://creativecommons.org/ns#"
   xmlns:rdf="http://www.w3.org/1999/02/22-rdf-syntax-ns#"
   xmlns:svg="http://www.w3.org/2000/svg"
   xmlns="http://www.w3.org/2000/svg"
   xmlns:sodipodi="http://sodipodi.sourceforge.net/DTD/sodipodi-0.dtd"
   xmlns:inkscape="http://www.inkscape.org/namespaces/inkscape"
   id="Capa_1"
   data-name="Capa 1"
   viewBox="0 0 226.34 98.79"
   version="1.1"
   sodipodi:docname="logo.svg"
   inkscape:version="0.92.3 (unknown)">
  <metadata
     id="metadata41">
    <rdf:RDF>
      <cc:Work
         rdf:about="">
        <dc:format>image/svg+xml</dc:format>
        <dc:type
           rdf:resource="http://purl.org/dc/dcmitype/StillImage" />
      </cc:Work>
    </rdf:RDF>
  </metadata>
  <sodipodi:namedview
     pagecolor="#ffffff"
     bordercolor="#666666"
     borderopacity="1"
     objecttolerance="10"
     gridtolerance="10"
     guidetolerance="10"
     inkscape:pageopacity="0"
     inkscape:pageshadow="2"
     inkscape:window-width="1366"
     inkscape:window-height="704"
     id="namedview39"
     showgrid="false"
     inkscape:zoom="1.6290957"
     inkscape:cx="99.282706"
     inkscape:cy="-0.5467196"
     inkscape:window-x="0"
     inkscape:window-y="27"
     inkscape:window-maximized="1"
     inkscape:current-layer="layer1" />
  <defs
     id="defs4">
    <style
       id="style2">.cls-1{fill:#f2d24c;}.cls-2{fill:#fff;}.cls-3{fill:#1c2533;}.cls-4{fill:none;stroke:#f2d24c;stroke-linecap:round;stroke-linejoin:round;stroke-width:1.64px;}</style>
  </defs>
  <title
     id="title6">logo</title>
  <g
     inkscape:groupmode="layer"
     id="layer1"
     inkscape:label="Layer 1" />
  <path
     class="cls-1"
     d="M113.74,30l-14.58-.12a5.56,5.56,0,0,0-5.61,5.52h0A5.57,5.57,0,0,0,99.12,41h8.12l6.42.05c8.12.07,11.37,5.6,11.31,12s-3,12.74-11.52,12.67l-7-.06v0H98.83a5.57,5.57,0,0,0-5.57,5.53v0a5.57,5.57,0,0,0,5.52,5.62l14.58.11c16.86.14,24.67-10.68,24.78-23.64S130.33,30.08,113.74,30Z"
     id="path8" />
  <path
     class="cls-1"
     d="M168.12,45.25v0a1.23,1.23,0,0,1-2,.7c-1.87-1.61-4.6-2.53-8.12-2.56-9.68-.08-16.19,7.39-16.26,17.2s5.3,16.63,15,17.31a14.39,14.39,0,0,0,9.38-2.6,1.23,1.23,0,0,1,1.94.82l0,.23a1.21,1.21,0,0,0,1.2,1l9.14.08a1.22,1.22,0,0,0,1.23-1.22l.25-30.73a1.22,1.22,0,0,0-1.21-1.24l-9.36-.07A1.22,1.22,0,0,0,168.12,45.25ZM160.59,68c-3.7,0-6.63-2.67-6.59-7.31s3-7.29,6.7-7.26c4.37,0,6.84,2.94,6.8,7.37C167.47,64.71,164.75,68.05,160.59,68Z"
     id="path10" />
  <path
     class="cls-1"
     d="M212.74,44.59A4,4,0,0,0,209,47.1l-2.14,5.3-2,5.67a2.07,2.07,0,0,1-3.92-.09l-1.71-5.57-1.83-5.28a4,4,0,0,0-3.75-2.69l-4.28,0a4,4,0,0,0-3.74,5.51l10,24.68a4,4,0,0,1-.05,3.13l-3.69,8.33a4,4,0,0,0,3.62,5.62l4.18,0a4,4,0,0,0,3.69-2.38l17.39-39.07a4,4,0,0,0-3.62-5.63Z"
     id="path12" />
  <path
     class="cls-2"
     d="M28.06,29.74H10.93a5.71,5.71,0,0,0-5.71,5.71h0a5.71,5.71,0,0,0,5.71,5.71H28.06c3.63,0,5.57,2.82,5.57,5.91s-1.88,5.78-5.57,5.78H18.52A13.23,13.23,0,0,0,5.22,66.07v5a5.71,5.71,0,0,0,5.71,5.71h1.88a5.7,5.7,0,0,0,5.71-5.71V69.77a5.71,5.71,0,0,1,5.71-5.71h3.83c12.56-.13,18.87-7.59,18.87-17.19C46.93,37.67,40.69,29.74,28.06,29.74Z"
     id="path14" />
  <path
     class="cls-2"
     d="M77.94,43.58a4,4,0,0,0-3.73,2.54l-2.09,5.32L70.19,57a2.11,2.11,0,0,1-4-.06L64.46,51.5l-1.87-5.26a4,4,0,0,0-3.77-2.66H54.54a4,4,0,0,0-3.7,5.54l10.22,24.6a4,4,0,0,1,0,3.12l-3.63,8.37a4,4,0,0,0,3.68,5.59h4.18a4,4,0,0,0,3.67-2.41L86,49.18a4,4,0,0,0-3.67-5.6Z"
     id="path16" />
  <circle
     class="cls-3"
     cx="9.71"
     cy="33.79"
     r="1.69"
     id="circle18" />
  <circle
     class="cls-3"
     cx="99.61"
     cy="69.29"
     r="1.69"
     id="circle20" />
  <path
     class="cls-2"
     d="m 31.56287,10.820547 c 0.04857,0.890421 0.05902,1.369754 -1.369927,1.398198 -2.132925,-0.03099 -1.562831,-0.03613 -3.89952,-0.08619 -0.962277,-0.05333 -1.169449,0.01783 -1.20964,0.892675 -0.02721,0.509018 -0.06726,1.076941 -0.02924,1.446226 0.09808,0.954016 0.160841,0.903778 1.466464,1.03074 h 4.105973 c 0.787265,0 1.425469,0.670096 1.425469,1.496701 v 0 c -0.0085,0.820244 -0.644216,1.48048 -1.425469,1.480432 h -7.204817 c -0.784799,5.8e-5 -1.4186,-0.672727 -1.409976,-1.496693 l -0.0228,-11.7990473 c -0.07225,-0.4449219 0.128617,-1.6576445 1.30474,-1.6098363 2.617702,0.00672 4.816941,-0.070752 7.121994,0.049837 1.203016,0.032892 1.56095,0.7278734 1.555479,1.3394524 -0.006,0.6737886 -0.667233,1.266329 -1.240804,1.2176863 -1.628126,-0.099775 -3.706562,0.033952 -4.983397,0.020645 -0.614297,-0.00634 -0.771853,0.1868012 -0.830195,1.0431677 0.06552,0.2551077 0.03812,1.0958142 0.07299,1.5940707 0.0353,0.5046906 0.202983,0.6497697 0.968781,0.6919799 1.613802,-0.045991 2.854258,0.051262 4.217314,0.047097 1.277444,0.114465 1.337768,0.4565386 1.386582,1.2428536 z"
     id="path28"
     inkscape:connector-curvature="0"
     style="fill:#ffffff;stroke-width:1.58766413"
     sodipodi:nodetypes="ccccscsccccccccscscsccc" />
  <path
     class="cls-2"
     d="m 42.774467,15.990258 h -5.144086 a 1.5494236,1.6268484 0 0 0 -1.378987,0.95984 l -0.232414,0.569397 a 1.5494236,1.6268484 0 0 1 -1.394481,0.959841 v 0 A 1.5494236,1.6268484 0 0 1 33.245512,16.250553 L 38.126196,4.8626147 a 1.5494236,1.6268484 0 0 1 1.363493,-0.8947668 h 1.42547 a 1.5494236,1.6268484 0 0 1 1.378987,0.9435723 l 4.86519,11.3879388 a 1.5494236,1.6268484 0 0 1 -1.378987,2.228782 v 0 a 1.5494236,1.6268484 0 0 1 -1.394481,-0.95984 L 44.153454,16.982635 A 1.5494236,1.6268484 0 0 0 42.774467,15.990258 Z M 39.97001,7.8560158 37.986748,12.736561 a 0.27889626,0.29283271 0 0 0 0.247908,0.406712 h 3.95103 a 0.27889626,0.29283271 0 0 0 0.247908,-0.406712 L 40.465826,7.8560158 a 0.26340202,0.27656423 0 0 0 -0.51131,-0.032537 z"
     id="path30"
     inkscape:connector-curvature="0"
     style="fill:#ffffff;stroke-width:1.58766413" />
  <line
     class="cls-4"
     x1="52.94088"
     y1="17.92"
     x2="221.11"
     y2="17.92"
     id="line36"
     style="fill:none;stroke:#f2d24c;stroke-width:1.75722671px;stroke-linecap:round;stroke-linejoin:round" />
  <path
     inkscape:connector-curvature="0"
     class="cls-2"
     d="m 9.3452459,16.594612 c -0.027409,1.420429 -0.1870572,2.146118 -1.6044018,2.143232 v 0 C 6.6714489,18.694324 6.3924148,17.977728 6.3618571,16.509061 L 6.263887,5.7151679 C 6.2805743,5.0328514 6.3143827,4.5029525 6.9343366,4.0658976 7.5052511,3.663409 8.2511979,3.8173685 8.8142104,4.297378 c 0.450495,0.4027536 7.0236006,6.745209 7.6506716,7.27102 0.758903,0.148824 0.580305,-0.689168 0.557115,-1.9413967 -0.02682,-1.4486369 -0.01239,-2.7035926 -0.0087,-4.1018119 -0.01707,-1.2545915 1.10608,-1.5831989 1.613908,-1.5708656 0.499813,0.012136 1.531608,0.2143286 1.611405,1.5315479 l 0.05257,11.0719933 c -0.0033,0.54756 -0.067,1.379961 -0.378447,1.765707 -0.445172,0.551353 -1.411328,0.57921 -1.855208,0.108852 -0.295266,-0.204436 -4.943466,-4.693957 -7.541163,-7.155349 -0.474858,-0.477412 -1.2127167,-1.37192 -1.1758172,-0.560791 0.012705,2.168359 -0.029641,2.845647 0.00465,5.878328 z"
     id="path24-7"
     style="fill:#ffffff;stroke-width:1.58766413"
     sodipodi:nodetypes="cccccsccscsccscccc" />
</svg>
