<svg id="Capa_1" data-name="Capa 1" xmlns="http://www.w3.org/2000/svg" viewBox="0 0 50 50"><defs><style>.cls-1{fill:#e3c150;}</style></defs><title>pin</title><path class="cls-1" d="M37.24,21.16a12.24,12.24,0,0,0-24.48,0,7.06,7.06,0,0,0,.13,1.94,12.39,12.39,0,0,0,1.38,4.08C16,31,19.13,35.39,23.51,40.29A2,2,0,0,0,25,41a2,2,0,0,0,1.49-.66C30.87,35.39,34,31,35.73,27.18a12.39,12.39,0,0,0,1.38-4.08A7.06,7.06,0,0,0,37.24,21.16Zm-2.11,1.6a10,10,0,0,1-1.19,3.51c-1.3,2.86-3.88,7-8.94,12.69-5.06-5.67-7.64-9.83-8.94-12.69a10.22,10.22,0,0,1-1.2-3.51,4.48,4.48,0,0,1-.1-1.48,10.24,10.24,0,0,1,20.48,0A4.37,4.37,0,0,1,35.13,22.76Z"/><path class="cls-1" d="M25,16.59a4.69,4.69,0,1,0,4.69,4.69A4.69,4.69,0,0,0,25,16.59ZM25,25a3.69,3.69,0,1,1,3.69-3.69A3.69,3.69,0,0,1,25,25Z"/></svg>